<?xml version="1.0" encoding="utf-8"?>
<!-- Generator: Adobe Illustrator 23.0.1, SVG Export Plug-In . SVG Version: 6.00 Build 0)  -->
<svg version="1.1" id="Capa_1" xmlns="http://www.w3.org/2000/svg" xmlns:xlink="http://www.w3.org/1999/xlink" x="0px" y="0px"
	 viewBox="0 0 49.3 41.8" style="enable-background:new 0 0 49.3 41.8;" xml:space="preserve">
<style type="text/css">
	.st0{fill:#FFFFFF;}
	.st1{fill:none;stroke:#000000;stroke-width:5;stroke-linecap:round;stroke-miterlimit:10;}
</style>
<title>carro</title>
<g>
	<g id="Capa_1-2">
		<path class="st0" d="M38,38c0.1,2.1,1.9,3.7,4,3.6c1.9-0.1,3.5-1.7,3.6-3.6c0.1-2.1-1.5-3.9-3.6-4s-3.9,1.5-4,3.6
			C38,37.7,38,37.9,38,38z"/>
		<path class="st0" d="M48.8,4.4C48.4,4,48,3.8,47.4,3.8H11.8c0-0.1-0.1-0.4-0.1-0.8s-0.1-0.7-0.2-0.9c-0.1-0.3-0.1-0.5-0.2-0.8
			c-0.1-0.3-0.2-0.5-0.4-0.7s-0.4-0.3-0.6-0.5C10.1,0.1,9.8,0,9.5,0H1.9c-0.5,0-1,0.2-1.3,0.6C0.2,0.9,0,1.4,0,1.9s0.2,1,0.6,1.3
			c0.3,0.4,0.8,0.6,1.3,0.6H8l5.2,24.4l-0.6,1.1c-0.4,0.7-0.7,1.3-0.9,1.8c-0.2,0.4-0.3,0.8-0.3,1.2c0,0.5,0.2,1,0.6,1.3
			c0.4,0.4,0.8,0.6,1.3,0.6h30.3c1,0,1.9-0.9,1.9-1.9s-0.9-1.9-1.9-1.9H16.4c0.3-0.6,0.6-1.2,0.7-1.9c0-0.2,0-0.4-0.1-0.6
			c0-0.2-0.1-0.5-0.2-0.8c-0.1-0.2-0.1-0.4-0.1-0.6l31-3.6c0.5,0,0.9-0.3,1.2-0.6c0.3-0.3,0.5-0.8,0.5-1.3V5.7
			C49.4,5.2,49.2,4.7,48.8,4.4z"/>
		<path class="st0" d="M11.4,38c0,2.1,1.7,3.8,3.8,3.8l0,0c1,0,2-0.4,2.7-1.1C18.6,40,19,39,19,38c0-2.1-1.7-3.8-3.8-3.8l0,0
			c-1,0-2,0.4-2.7,1.1C11.8,36,11.4,37,11.4,38z"/>
	</g>
</g>
<g>
	<line class="st1" x1="38" y1="2.6" x2="38" y2="20.6"/>
	<line class="st1" x1="47" y1="11.6" x2="29" y2="11.6"/>
</g>
</svg>
