<svg xmlns="http://www.w3.org/2000/svg" viewBox="0 0 49.34 41.75"><defs><style>.cls-1{fill:#fff;}</style></defs><title> carro</title><g id="Capa_2" data-name="Capa 2"><g id="Capa_1-2" data-name="Capa 1"><path class="cls-1" d="M38,38a3.8,3.8,0,0,0,7.59,0A3.8,3.8,0,1,0,38,38Z"/><path class="cls-1" d="M48.78,4.36a1.81,1.81,0,0,0-1.33-.56H11.83c0-.14-.06-.39-.13-.76s-.13-.66-.16-.88a5.62,5.62,0,0,0-.23-.78,2.36,2.36,0,0,0-.38-.73,1.91,1.91,0,0,0-.6-.46A1.74,1.74,0,0,0,9.49,0H1.9A1.85,1.85,0,0,0,.56.56,1.85,1.85,0,0,0,0,1.9,1.83,1.83,0,0,0,.56,3.23,1.82,1.82,0,0,0,1.9,3.8H8L13.2,28.2l-.61,1.13c-.37.67-.66,1.26-.88,1.76a3.44,3.44,0,0,0-.32,1.17A1.81,1.81,0,0,0,12,33.6a1.85,1.85,0,0,0,1.34.56H43.65a1.93,1.93,0,0,0,1.9-1.9,1.93,1.93,0,0,0-1.9-1.89H16.37a5.88,5.88,0,0,0,.71-1.9,3.07,3.07,0,0,0-.07-.65c-.05-.24-.11-.5-.18-.79a4.75,4.75,0,0,1-.13-.64l31-3.62a1.82,1.82,0,0,0,1.22-.63,1.86,1.86,0,0,0,.47-1.26V5.69A1.81,1.81,0,0,0,48.78,4.36Z"/><path class="cls-1" d="M11.39,38a3.79,3.79,0,0,0,3.79,3.79,3.68,3.68,0,0,0,2.69-1.11A3.65,3.65,0,0,0,19,38a3.79,3.79,0,0,0-3.8-3.8,3.65,3.65,0,0,0-2.68,1.11A3.68,3.68,0,0,0,11.39,38Z"/></g></g></svg>