<svg xmlns="http://www.w3.org/2000/svg" viewBox="0 0 26.43 22.24"><defs><style>.cls-1{fill:#fff;stroke:#fff;stroke-miterlimit:10;}</style></defs><title>filtros</title><g id="Capa_2" data-name="Capa 2"><g id="Capa_1-2" data-name="Capa 1"><path class="cls-1" d="M9.78,17.78H1a.47.47,0,1,0,0,.94H9.75a3.39,3.39,0,0,0,6.74,0h9a.47.47,0,0,0,0-.94h-9a3.39,3.39,0,0,0-6.68,0Zm5.79.56a2.45,2.45,0,1,1-2.45-2.45A2.46,2.46,0,0,1,15.57,18.34Z"/><path class="cls-1" d="M25.64,10.55H23.21a3.29,3.29,0,0,0-6.52,0H1.09A.54.54,0,0,0,.5,11a.54.54,0,0,0,.59.47h15.6a3.29,3.29,0,0,0,6.52,0h2.43c.16,0,.29-.21.29-.47S25.8,10.55,25.64,10.55Zm-5.7,2.82A2.36,2.36,0,1,1,22.31,11,2.35,2.35,0,0,1,19.94,13.37Z"/><path class="cls-1" d="M.8,4.27H3.23a3.29,3.29,0,0,0,6.52,0H25.34a.53.53,0,0,0,.59-.47.53.53,0,0,0-.59-.47H9.75a3.29,3.29,0,0,0-6.52,0H.8c-.17,0-.3.21-.3.47S.63,4.27.8,4.27ZM6.49,1.45A2.36,2.36,0,1,1,4.13,3.8,2.36,2.36,0,0,1,6.49,1.45Z"/></g></g></svg>