<svg xmlns="http://www.w3.org/2000/svg" viewBox="0 0 983.22 608.82"><defs><style>.cls-1{fill:#d85266;}.cls-2{fill:#b01219;}.cls-3{fill:#1e1e1e;}</style></defs><title>fondoArticulo</title><g id="Capa_2" data-name="Capa 2"><g id="Capa_3" data-name="Capa 3"><path class="cls-1" d="M80.25,117.81l-.11-45.49L57.82,109.79H49.91L27.69,73.29v44.52H11.22V42H25.74L54.13,89.11,82.09,42H96.5l.22,75.81Z"/><path class="cls-1" d="M111.44,42c0-5.31,4.23-9.43,10.52-9.43s10.51,3.9,10.51,9.1c0,5.63-4.23,9.75-10.51,9.75S111.44,47.3,111.44,42Zm2.06,17.54h16.91v58.27H113.5Z"/><path class="cls-1" d="M141.78,88.67c0-17.54,13.55-30,32.51-30,12.24,0,21.89,5.31,26.12,14.84l-13.12,7c-3.14-5.52-7.8-8-13.11-8-8.56,0-15.28,5.95-15.28,16.13s6.72,16.14,15.28,16.14c5.31,0,10-2.38,13.11-8l13.12,7.15c-4.23,9.32-13.88,14.73-26.12,14.73C155.33,118.67,141.78,106.22,141.78,88.67Z"/><path class="cls-1" d="M269.31,84.45v33.36h-16.9V87.05c0-9.42-4.33-13.76-11.81-13.76-8.13,0-14,5-14,15.71v28.81h-16.9V37.45h16.9V65.6c4.55-4.54,11-6.93,18.53-6.93C258.91,58.67,269.31,66.69,269.31,84.45Z"/><path class="cls-1" d="M336.17,84.56v33.25H320.34v-7.26c-3.14,5.31-9.21,8.12-17.77,8.12-13.65,0-21.78-7.58-21.78-17.65,0-10.29,7.26-17.44,25-17.44h13.44c0-7.25-4.33-11.48-13.44-11.48-6.17,0-12.57,2.06-16.79,5.42L283,65.71c6.39-4.55,15.82-7,25.14-7C325.87,58.67,336.17,66.91,336.17,84.56ZM319.26,99.39v-6H307.67c-7.91,0-10.41,2.92-10.41,6.82,0,4.22,3.58,7,9.54,7C312.43,107.3,317.31,104.7,319.26,99.39Z"/><path class="cls-1" d="M408.87,93.44H364.76c1.63,7.25,7.81,11.69,16.69,11.69,6.18,0,10.62-1.84,14.63-5.63l9,9.75c-5.41,6.17-13.54,9.42-24.05,9.42-20.16,0-33.27-12.67-33.27-30s13.33-30,31.1-30c17.12,0,30.34,11.48,30.34,30.22C409.19,90.19,409,92,408.87,93.44Zm-44.32-9.86h28.71c-1.19-7.36-6.72-12.13-14.3-12.13S365.74,76.11,364.55,83.58Z"/><path class="cls-1" d="M420.45,37.45h16.91v80.36H420.45Z"/><path class="cls-1" d="M0,236.77l12.54-15c5.29,7.1,11.14,10.72,18.11,10.72,9.05,0,13.79-5.43,13.79-16.15V169.94H10.17v-18.1H66.86v63.21c0,24.08-12.11,35.92-35.1,35.92C18.67,251,7.1,246,0,236.77Z"/><path class="cls-1" d="M82.05,211.85c0-22.56,17.41-38.57,41.23-38.57s41.1,16,41.1,38.57-17.28,38.56-41.1,38.56S82.05,234.4,82.05,211.85Zm60.32,0c0-12.95-8.22-20.75-19.09-20.75s-19.22,7.8-19.22,20.75,8.36,20.74,19.22,20.74S142.37,224.79,142.37,211.85Z"/><path class="cls-1" d="M225.39,173.28v20.05c-1.81-.14-3.2-.28-4.87-.28-12,0-19.92,6.55-19.92,20.89V249.3H178.87V174.4h20.75v9.88C204.92,177,213.83,173.28,225.39,173.28Z"/><path class="cls-1" d="M314,146V249.3H293.24v-8.63c-5.44,6.54-13.38,9.74-23.41,9.74-21.17,0-37.47-15-37.47-38.56s16.3-38.57,37.47-38.57c9.2,0,17,2.93,22.43,9.05V146Zm-21.31,65.85c0-12.95-8.36-20.75-19.09-20.75s-19.22,7.8-19.22,20.75,8.36,20.74,19.22,20.74S292.68,224.79,292.68,211.85Z"/><path class="cls-1" d="M400.36,206.56V249.3H380V240c-4,6.82-11.84,10.44-22.84,10.44-17.55,0-28-9.74-28-22.69,0-13.23,9.33-22.42,32.18-22.42h17.27c0-9.32-5.57-14.75-17.27-14.75-7.94,0-16.16,2.64-21.6,7L332,182.33c8.22-5.85,20.34-9.05,32.32-9.05C387.13,173.28,400.36,183.86,400.36,206.56Zm-21.73,19.07V218H363.72c-10.16,0-13.37,3.76-13.37,8.77,0,5.43,4.6,9,12.26,9C369.85,235.79,376.12,232.45,378.63,225.63Z"/><path class="cls-1" d="M496.62,206.42V249.3H474.89V209.76c0-12.11-5.57-17.68-15.19-17.68-10.44,0-18,6.4-18,20.18v37H420V174.4h20.76v8.77c5.85-6.41,14.63-9.89,24.8-9.89C483.25,173.28,496.62,183.59,496.62,206.42Z"/><path class="cls-2" d="M89,125.43l-.11-45.49L66.61,117.41H58.7L36.49,80.92v44.51H20V49.62H34.54L62.93,96.73,90.88,49.62H105.3l.21,75.81Z"/><path class="cls-2" d="M120.24,49.62c0-5.31,4.22-9.42,10.51-9.42s10.51,3.9,10.51,9.09c0,5.64-4.23,9.75-10.51,9.75S120.24,54.93,120.24,49.62Zm2.06,17.54h16.9v58.27H122.3Z"/><path class="cls-2" d="M150.58,96.3c0-17.55,13.54-30,32.5-30,12.25,0,21.89,5.3,26.12,14.83l-13.11,7c-3.14-5.52-7.81-8-13.11-8-8.57,0-15.28,6-15.28,16.14s6.71,16.13,15.28,16.13c5.3,0,10-2.38,13.11-8l13.11,7.15c-4.23,9.31-13.87,14.72-26.12,14.72C164.12,126.29,150.58,113.84,150.58,96.3Z"/><path class="cls-2" d="M278.11,92.07v33.36H261.2V94.67c0-9.42-4.33-13.75-11.81-13.75-8.12,0-14,5-14,15.7v28.81h-16.9V45.07h16.9V73.23c4.56-4.55,11.06-6.93,18.53-6.93C267.71,66.3,278.11,74.31,278.11,92.07Z"/><path class="cls-2" d="M345,92.18v33.25H329.14v-7.26c-3.14,5.31-9.21,8.12-17.77,8.12-13.66,0-21.78-7.58-21.78-17.65,0-10.29,7.26-17.43,25-17.43h13.43c0-7.26-4.33-11.48-13.43-11.48-6.18,0-12.57,2-16.8,5.41l-6.07-11.8c6.4-4.55,15.82-7,25.14-7C334.66,66.3,345,74.53,345,92.18ZM328.05,107v-6H316.46c-7.91,0-10.4,2.93-10.4,6.82,0,4.23,3.57,7,9.53,7C321.23,114.92,326.1,112.33,328.05,107Z"/><path class="cls-2" d="M417.66,101.06h-44.1c1.62,7.26,7.8,11.7,16.69,11.7a19.76,19.76,0,0,0,14.62-5.63l9,9.74c-5.42,6.18-13.55,9.42-24.06,9.42-20.15,0-33.26-12.67-33.26-30s13.32-30,31.1-30C404.77,66.3,418,77.78,418,96.51,418,97.81,417.77,99.65,417.66,101.06Zm-44.32-9.85h28.72c-1.2-7.37-6.72-12.13-14.31-12.13S374.53,83.73,373.34,91.21Z"/><path class="cls-2" d="M429.25,45.07h16.9v80.36h-16.9Z"/><path class="cls-2" d="M8.79,244.39l12.54-15c5.29,7.1,11.15,10.72,18.11,10.72,9.05,0,13.79-5.43,13.79-16.15V177.56H19V159.47h56.7v63.2c0,24.09-12.12,35.92-35.11,35.92C27.46,258.59,15.9,253.58,8.79,244.39Z"/><path class="cls-2" d="M90.84,219.47c0-22.55,17.42-38.56,41.24-38.56s41.09,16,41.09,38.56S155.9,258,132.08,258,90.84,242,90.84,219.47Zm60.32,0c0-12.95-8.22-20.74-19.08-20.74s-19.23,7.79-19.23,20.74,8.36,20.74,19.23,20.74S151.16,232.42,151.16,219.47Z"/><path class="cls-2" d="M234.19,180.91v20c-1.81-.14-3.21-.27-4.88-.27-12,0-19.92,6.54-19.92,20.88v35.36H187.66V182h20.76v9.88C213.71,184.67,222.62,180.91,234.19,180.91Z"/><path class="cls-2" d="M322.79,153.62v103.3H302v-8.63c-5.43,6.54-13.37,9.74-23.4,9.74-21.18,0-37.47-15-37.47-38.56s16.29-38.56,37.47-38.56c9.19,0,17,2.92,22.43,9.05V153.62Zm-21.32,65.85c0-12.95-8.36-20.74-19.08-20.74s-19.22,7.79-19.22,20.74,8.35,20.74,19.22,20.74S301.47,232.42,301.47,219.47Z"/><path class="cls-2" d="M409.15,214.18v42.74H388.82v-9.33C384.78,254.41,377,258,366,258c-17.55,0-28-9.74-28-22.69,0-13.22,9.34-22.41,32.18-22.41h17.27c0-9.33-5.57-14.76-17.27-14.76-7.94,0-16.16,2.64-21.59,7L340.76,190c8.22-5.85,20.34-9.05,32.32-9.05C395.92,180.91,409.15,191.49,409.15,214.18Zm-21.73,19.07V225.6h-14.9c-10.17,0-13.37,3.76-13.37,8.77,0,5.43,4.59,9,12.25,9C378.65,243.42,384.92,240.08,387.42,233.25Z"/><path class="cls-2" d="M505.41,214v42.88H483.68V217.38c0-12.11-5.57-17.68-15.18-17.68-10.45,0-18,6.41-18,20.19v37H428.8V182h20.75v8.77c5.85-6.4,14.63-9.88,24.8-9.88C492,180.91,505.41,191.21,505.41,214Z"/><path class="cls-3" d="M99.84,133.05l-.11-45.48L77.41,125H69.5L47.28,88.54v44.51H30.81V57.24H45.33l28.39,47.11,28-47.11h14.41l.22,75.81Z"/><path class="cls-3" d="M131,57.24c0-5.3,4.23-9.42,10.51-9.42s10.52,3.9,10.52,9.1c0,5.63-4.23,9.74-10.52,9.74S131,62.55,131,57.24Zm2.06,17.55H150v58.26H133.09Z"/><path class="cls-3" d="M161.37,103.92c0-17.55,13.55-30,32.51-30,12.24,0,21.89,5.31,26.11,14.84l-13.11,7c-3.14-5.53-7.8-8-13.11-8-8.56,0-15.28,6-15.28,16.14s6.72,16.14,15.28,16.14c5.31,0,10-2.39,13.11-8L220,119.19c-4.22,9.31-13.87,14.73-26.11,14.73C174.92,133.92,161.37,121.46,161.37,103.92Z"/><path class="cls-3" d="M288.9,99.7v33.35H272V102.3c0-9.43-4.33-13.76-11.81-13.76-8.13,0-14,5-14,15.7v28.81h-16.9V52.69h16.9V80.85c4.55-4.55,11-6.93,18.53-6.93C278.5,73.92,288.9,81.93,288.9,99.7Z"/><path class="cls-3" d="M355.75,99.8v33.25H339.93V125.8c-3.14,5.3-9.21,8.12-17.77,8.12-13.65,0-21.78-7.58-21.78-17.66,0-10.28,7.26-17.43,25-17.43h13.44c0-7.26-4.33-11.48-13.44-11.48-6.17,0-12.57,2.06-16.79,5.41L302.55,81c6.39-4.55,15.82-7,25.14-7C345.46,73.92,355.75,82.15,355.75,99.8Zm-16.9,14.84v-6H327.26c-7.91,0-10.41,2.93-10.41,6.83,0,4.22,3.58,7,9.54,7C332,122.55,336.9,120,338.85,114.64Z"/><path class="cls-3" d="M428.46,108.68H384.35c1.63,7.26,7.81,11.7,16.69,11.7,6.18,0,10.62-1.84,14.63-5.63l9,9.75c-5.41,6.17-13.54,9.42-24.05,9.42-20.16,0-33.27-12.67-33.27-30s13.33-30,31.1-30c17.12,0,30.34,11.48,30.34,30.22C428.78,105.43,428.56,107.28,428.46,108.68Zm-44.32-9.85h28.71c-1.19-7.36-6.72-12.13-14.3-12.13S385.33,91.36,384.14,98.83Z"/><path class="cls-3" d="M440,52.69H457v80.36H440Z"/><path class="cls-3" d="M19.59,252l12.54-15c5.29,7.1,11.14,10.72,18.11,10.72,9,0,13.79-5.43,13.79-16.15V185.19H29.76v-18.1H86.45v63.2c0,24.09-12.12,35.92-35.1,35.92C38.26,266.21,26.69,261.2,19.59,252Z"/><path class="cls-3" d="M101.64,227.09c0-22.55,17.41-38.56,41.23-38.56s41.1,16,41.1,38.56-17.28,38.57-41.1,38.57S101.64,249.65,101.64,227.09Zm60.32,0c0-12.94-8.22-20.74-19.09-20.74s-19.22,7.8-19.22,20.74,8.36,20.75,19.22,20.75S162,240,162,227.09Z"/><path class="cls-3" d="M245,188.53v20.05c-1.81-.14-3.2-.28-4.87-.28-12,0-19.92,6.54-19.92,20.88v35.36H198.46v-74.9h20.75v9.89C224.5,192.29,233.42,188.53,245,188.53Z"/><path class="cls-3" d="M333.58,161.24v103.3H312.83v-8.63c-5.44,6.54-13.38,9.75-23.41,9.75-21.17,0-37.47-15-37.47-38.57s16.3-38.56,37.47-38.56c9.2,0,17,2.92,22.43,9.05V161.24Zm-21.31,65.85c0-12.94-8.36-20.74-19.09-20.74S274,214.15,274,227.09s8.36,20.75,19.22,20.75S312.27,240,312.27,227.09Z"/><path class="cls-3" d="M420,221.8v42.74H399.61v-9.32c-4,6.82-11.84,10.44-22.84,10.44-17.56,0-28-9.75-28-22.69,0-13.23,9.33-22.42,32.18-22.42h17.27c0-9.33-5.57-14.76-17.27-14.76-7.94,0-16.16,2.65-21.6,7l-7.8-15.17c8.22-5.85,20.34-9.05,32.32-9.05C406.72,188.53,420,199.11,420,221.8Zm-21.73,19.08v-7.66H383.31c-10.17,0-13.37,3.76-13.37,8.77,0,5.43,4.6,9,12.26,9C389.44,251,395.71,247.7,398.22,240.88Z"/><path class="cls-3" d="M516.21,221.66v42.88H494.48V225c0-12.11-5.57-17.68-15.19-17.68-10.44,0-18,6.41-18,20.19v37H439.59v-74.9h20.76v8.77c5.85-6.4,14.63-9.88,24.79-9.88C502.84,188.53,516.21,198.83,516.21,221.66Z"/><polygon class="cls-2" points="80.7 422.27 149.99 422.27 572.49 0 503.2 0 80.7 422.27"/><polygon class="cls-2" points="983.22 0 702.34 280.72 568.48 414.51 374.06 608.82 274.17 608.82 521.82 361.31 639.98 243.21 684.12 199.1 883.33 0 983.22 0"/></g></g></svg>