<?xml version="1.0" encoding="utf-8"?>
<!-- Generator: Adobe Illustrator 23.0.1, SVG Export Plug-In . SVG Version: 6.00 Build 0)  -->
<svg version="1.1" id="Capa_1" xmlns="http://www.w3.org/2000/svg" xmlns:xlink="http://www.w3.org/1999/xlink" x="0px" y="0px"
	 viewBox="0 0 1012.6 702.8" style="enable-background:new 0 0 1012.6 702.8;" xml:space="preserve">
<style type="text/css">
	.st0{fill:#B01219;}
	.st1{fill:#FFFFFF;}
</style>
<title>Recurso 8_1</title>
<g>
	<g id="Capa_1-2">
		<polygon class="st0" points="90.5,587.7 168.4,587.7 643.4,112.7 565.5,112.7 		"/>
		<path class="st1" d="M502,510.6c92.6-11.1,155.9-77.2,164.8-164.8L502,510.6z M394.8,372.1c0-66.3,43.4-122.2,114.2-122.2
			c42.8,0,70.8,19.2,81.1,49.7l54.3-54.3c-25.2-35.6-69.8-57.1-129.1-57.1c-2.1,0-4.2,0-6.3,0.1v-0.1H194.7
			c-6.5,0-12.9,0.2-19.2,0.7C69.8,197.3,0,275.1,0,376.2c0,80.6,59.1,136.1,154.9,136.1c53.7,0,99.4-15.7,132.5-54.2l-43-43.9
			c-23.3,25.1-51.5,36.3-83.3,36.3c-56.4,0-87.7-31.3-87.7-78.8c0-67.6,45.7-121.8,116.4-121.8h177.7
			c-29.4,32.9-46.1,76.8-46.1,126.2c0,54.4,26.1,97.4,72.5,119.6l50.7-50.7C412.2,434.1,394.8,407.4,394.8,372.1z"/>
		<path class="st0" d="M309.8,702.8L502,510.6c-9.3,1.1-18.6,1.7-28,1.7c-30.9,0-57.9-5.9-80.1-16.5L186.8,702.8H309.8z"/>
		<path class="st0" d="M590,299.6c3,9.2,4.5,18.9,4.4,28.7c0,66.3-43.4,122.2-114.2,122.2c-12.1,0.2-24.2-1.7-35.8-5.4L590,299.6z"
			/>
		<path class="st0" d="M666.8,345.8c0.7-7.2,1.1-14.4,1.1-21.6c0-30.5-8.2-57.3-23.5-79L889.7,0h123L666.8,345.8z"/>
		<path class="st0" d="M474.1,511.8c-30,0-56.6-5.4-79.3-16.2l50-50c11.5,3.7,23.5,5.5,35.6,5.4c33.9,0,62.9-12.6,84-36.4
			c19.8-22.4,30.7-53,30.7-86.3c0.1-9.7-1.4-19.3-4.4-28.5l53.7-53.8c15.1,21.6,23.1,48.6,23.1,78.2c0,7.1-0.4,14.2-1.1,21.3
			L501.8,510.1C492.6,511.2,483.3,511.8,474.1,511.8z"/>
		<path class="st1" d="M644.3,246.8c14.8,21.4,22.7,48.1,22.7,77.4c0,7-0.3,14.1-1,21.1L501.6,509.7c-9.1,1.1-18.3,1.6-27.5,1.6
			c-29.6,0-56-5.3-78.4-15.8l49.2-49.2c11.5,3.6,23.4,5.4,35.5,5.3c16.5,0.2,32.9-3.2,48.1-9.9c13.9-6.2,26.2-15.3,36.3-26.7
			c19.9-22.5,30.8-53.2,30.8-86.6c0.1-9.6-1.4-19.2-4.3-28.4L644.3,246.8 M644.4,245.3L590,299.6c3,9.2,4.5,18.9,4.4,28.7
			c0,66.3-43.4,122.2-114.2,122.2c-12.1,0.2-24.2-1.7-35.8-5.4l-50.7,50.7c22.3,10.7,49.2,16.5,80.1,16.5c9.4,0,18.7-0.5,28-1.6
			l164.8-164.8c0.7-7.2,1.1-14.4,1.1-21.6C667.9,293.8,659.7,266.9,644.4,245.3L644.4,245.3z"/>
	</g>
</g>
</svg>
