<?xml version="1.0" encoding="utf-8"?>
<!-- Generator: Adobe Illustrator 23.0.1, SVG Export Plug-In . SVG Version: 6.00 Build 0)  -->
<svg version="1.1" id="Capa_1" xmlns="http://www.w3.org/2000/svg" xmlns:xlink="http://www.w3.org/1999/xlink" x="0px" y="0px"
	 viewBox="0 0 151.6 48.6" style="enable-background:new 0 0 151.6 48.6;" xml:space="preserve">
<style type="text/css">
	.st0{fill:#B01219;}
	.st1{fill:#FFFFFF;}
</style>
<title>Recurso 9_1</title>
<path class="st0" d="M46.8,19.1H17.7c-0.6,0-1.2,0-1.8,0.1C6.3,19.9,0,27,0,36.2C0,43.5,5.3,48.5,14,48.5c4.9,0,9-1.4,12-4.9l-3.9-4
	c-1.9,2.2-4.6,3.4-7.5,3.4c-5.1,0-8-2.8-8-7.2c0-6.1,4.1-11.1,10.6-11.1h16.2c-2.8,3.2-4.3,7.3-4.2,11.5c0,7.3,5.2,12.4,13.9,12.4
	c10.5,0,17.6-7.4,17.6-17.1C60.7,24.1,55.5,19.1,46.8,19.1z M43.7,43c-5,0-7.8-2.9-7.8-7.1c0-6,4-11.1,10.4-11.1
	c5,0,7.8,2.9,7.8,7.1C54.1,37.9,50.1,43,43.7,43z"/>
<path d="M64.6,38.6c0-1,0.1-2,0.4-3l3.2-16h6.6l-3.2,15.9c-0.2,0.8-0.2,1.6-0.2,2.4c0,3.5,2,5.1,5.5,5.1c4,0,6.3-2.2,7.4-7.5
	l3.2-15.8h6.5l-3.2,16.2c-1.7,8.4-6.6,12.7-14.6,12.7C69,48.6,64.6,44.7,64.6,38.6z"/>
<path d="M115.1,39.3l5,8.8h-7l-4.5-8H103l-1.6,8h-6.6l5.7-28.5h11.6c7.1,0,11.2,3.3,11.2,8.8C123.2,33.8,120.2,37.7,115.1,39.3z
	 M116.6,29c0-2.8-2-4.1-5.3-4.1H106l-2,9.9h5.6C114,34.8,116.6,32.8,116.6,29z"/>
<path d="M134.8,25.4h-9.1l1.1-5.4h24.8l-1.1,5.4h-9.1l-4.6,23.1h-6.6L134.8,25.4z"/>
<path class="st1" d="M11.8,24.8c-0.4,0-0.8,0-1.2,0l0,0H11.8z"/>
<path d="M33.9,2.7l-0.6,3.1h6.6l-0.5,2.6h-6.6l-0.7,3.3h7.8l-0.5,2.7h-11L31.2,0H42l-0.6,2.7H33.9z"/>
<polygon points="27.8,0 25,14.2 21.7,14.2 22.8,8.4 16.4,8.4 15.2,14.2 11.9,14.2 14.2,2.7 7.9,2.7 5.6,14.2 2.3,14.2 4.6,2.7 
	0,2.7 0.6,0 18,0 17.5,2.7 16.9,5.6 23.4,5.6 24.5,0 "/>
</svg>
