<svg xmlns="http://www.w3.org/2000/svg" viewBox="0 0 151.6 48.57"><defs><style>.cls-1{fill:#b01219;}.cls-2{fill:#fff;}</style></defs><title>Recurso 9_1</title><g id="Capa_2" data-name="Capa 2"><g id="Capa_1-2" data-name="Capa 1"><path class="cls-1" d="M46.85,19.09H17.71c-.6,0-1.18,0-1.75.07-9.61.76-16,7.84-16,17,0,7.33,5.37,12.38,14.08,12.38,4.89,0,9-1.43,12-4.93l-3.91-4A9.91,9.91,0,0,1,14.65,43c-5.12,0-8-2.85-8-7.17,0-6.14,4.15-11.07,10.58-11.07H33.42a17,17,0,0,0-4.19,11.48c0,7.33,5.21,12.38,13.88,12.38,10.5,0,17.62-7.37,17.62-17.1C60.73,24.14,55.52,19.09,46.85,19.09ZM43.68,43c-5,0-7.78-2.89-7.78-7.13,0-6,4-11.11,10.38-11.11,5,0,7.78,2.89,7.78,7.12C54.06,37.86,50.11,43,43.68,43Z"/><path class="cls-2" d="M64.64,38.59A16.52,16.52,0,0,1,65,35.54l3.17-16h6.64L71.6,35.42a13.43,13.43,0,0,0-.24,2.4c0,3.46,2,5.13,5.5,5.13,4,0,6.31-2.2,7.4-7.53l3.18-15.84h6.47L90.7,35.82C89,44.25,84.14,48.56,76.12,48.56,69,48.56,64.64,44.74,64.64,38.59Z"/><path class="cls-2" d="M115.08,39.28l5,8.8h-7l-4.48-8H103l-1.59,8H94.77l5.7-28.5h11.6c7.08,0,11.15,3.26,11.15,8.83C123.22,33.79,120.17,37.7,115.08,39.28ZM116.55,29c0-2.76-2-4.07-5.34-4.07H106l-2,9.9h5.62C114,34.85,116.55,32.81,116.55,29Z"/><path class="cls-2" d="M134.78,25.37h-9.11l1.1-5.37H151.6l-1.1,5.37h-9.08L136.78,48.5h-6.6Z"/><path class="cls-2" d="M11.76,24.81c-.39,0-.78,0-1.16,0v0Z"/><path class="cls-2" d="M33.93,2.65l-.61,3.09h6.61l-.5,2.56H32.79l-.65,3.3h7.77l-.55,2.65h-11L31.18,0H42L41.4,2.65Z"/><polygon class="cls-2" points="27.8 0 24.95 14.25 21.66 14.25 22.82 8.45 16.36 8.45 15.21 14.25 11.89 14.25 14.2 2.69 7.88 2.69 5.56 14.25 2.26 14.25 4.56 2.69 0 2.69 0.55 0 18.05 0 17.52 2.69 16.93 5.6 23.39 5.6 24.51 0 27.8 0"/></g></g></svg>