<svg xmlns="http://www.w3.org/2000/svg" viewBox="0 0 418.81 49.71"><defs><style>.cls-1{fill:#fff;}.cls-2{fill:#b01219;}</style></defs><title>logogra</title><g id="Capa_2" data-name="Capa 2"><g id="Capa_3" data-name="Capa 3"><path class="cls-1" d="M114.6,9.75l-2.06,10.44h22.34l-1.72,8.65H110.75L108.55,40h26.26L133,48.89H95.7L105.32.82h36.37l-1.86,8.93Z"/><path class="cls-2" d="M241.92,0l-1,0V0H192.7c-1,0-2,0-2.95.11C173.52,1.4,162.8,13.34,162.8,28.84c0,12.36,9.07,20.87,23.78,20.87,8.25,0,15.26-2.4,20.35-8.31l-6.6-6.72a16.8,16.8,0,0,1-12.79,5.56c-8.66,0-13.47-4.81-13.47-12.09,0-10.37,7-18.67,17.87-18.67h27.29a28.68,28.68,0,0,0-7.08,19.36c0,12.36,8.8,20.87,23.44,20.87,17.74,0,29.77-12.43,29.77-28.84C265.36,8.51,256.56,0,241.92,0Zm-5.36,40.24c-8.46,0-13.13-4.88-13.13-12,0-10.16,6.66-18.74,17.53-18.74,8.45,0,13.13,4.87,13.13,12C254.09,31.65,247.42,40.24,236.56,40.24Z"/><path class="cls-1" d="M272,32.89a26.88,26.88,0,0,1,.55-5.15L277.88.82h11.2l-5.36,26.71a23,23,0,0,0-.41,4c0,5.84,3.3,8.66,9.28,8.66,6.74,0,10.65-3.71,12.51-12.71L310.46.82h10.93L316,28.22c-2.89,14.21-11.07,21.49-24.61,21.49C279.25,49.71,272,43.26,272,32.89Z"/><path class="cls-1" d="M357.14,34.06l8.39,14.83H353.77l-7.56-13.46h-9.49L334,48.89h-11.2L332.46.82h19.6c12,0,18.83,5.5,18.83,14.9C370.89,24.79,365.74,31.38,357.14,34.06Zm2.48-17.31c0-4.67-3.3-6.86-9-6.86h-8.8l-3.37,16.68h9.49C355.29,26.57,359.62,23.14,359.62,16.75Z"/><path class="cls-1" d="M390.42,9.89H375L376.87.82h41.94L417,9.89H401.62l-7.83,39H382.65Z"/><polygon class="cls-1" points="93.9 0.82 84.28 48.89 73.15 48.89 77.07 29.32 55.27 29.32 51.35 48.89 40.15 48.89 47.96 9.89 26.61 9.89 18.77 48.89 7.63 48.89 15.4 9.89 0 9.89 1.86 0.82 60.98 0.82 59.16 9.89 57.2 19.71 78.99 19.71 82.77 0.82 93.9 0.82"/></g></g></svg>