<svg xmlns="http://www.w3.org/2000/svg" viewBox="0 0 269.43 56.58"><defs><style>.cls-1{fill:#fff;}.cls-2{fill:#b01219;}</style></defs><title>Recurso 2</title><g id="Capa_2" data-name="Capa 2"><g id="Capa_1-2" data-name="Capa 1"><path class="cls-1" d="M189.32,54.51l1.75-3.31a10.52,10.52,0,0,0,6.12,1.93c2.36,0,3.84-.82,3.84-2.17,0-3-9.19-1.38-9.19-7.29,0-3.81,3.33-6.27,8.47-6.27A12.08,12.08,0,0,1,206.72,39l-1.61,3.28a9.08,9.08,0,0,0-5-1.43c-2.49,0-3.94.95-3.94,2.28,0,3,9.19,1.46,9.19,7.15,0,3.84-3.39,6.31-8.56,6.31A13.31,13.31,0,0,1,189.32,54.51Z"/><path class="cls-1" d="M227.92,37.71l-3.71,18.55h-4.29l1.51-7.55H213l-1.51,7.55H207.2l3.71-18.55h4.32L213.77,45h8.4l1.46-7.29Z"/><path class="cls-1" d="M229.19,48.52c0-6.33,4.64-11.12,11.47-11.12,5.64,0,9,3.28,9,8.05,0,6.33-4.63,11.13-11.47,11.13C232.58,56.58,229.19,53.29,229.19,48.52Zm16.16-2.83c0-2.76-1.8-4.64-5.06-4.64-4.19,0-6.76,3.31-6.76,7.23,0,2.76,1.81,4.64,5.06,4.64C242.78,52.92,245.35,49.61,245.35,45.69Z"/><path class="cls-1" d="M269.43,43.49c0,4.71-3.47,7.65-9,7.65h-4.13l-1,5.12H251l3.7-18.55h7.5C266.81,37.71,269.43,39.86,269.43,43.49Zm-4.34.37c0-1.8-1.28-2.65-3.45-2.65h-3.36L257,47.65h3.63C263.44,47.65,265.09,46.32,265.09,43.86Z"/><path class="cls-2" d="M54.58,22.24H20.63c-.7,0-1.37,0-2,.08C7.4,23.21,0,31.46,0,42.16c0,8.53,6.26,14.42,16.4,14.42,5.7,0,10.53-1.66,14-5.74l-4.55-4.65A11.54,11.54,0,0,1,17.07,50c-6,0-9.29-3.32-9.29-8.35,0-7.16,4.83-12.89,12.32-12.89H38.93a19.8,19.8,0,0,0-4.88,13.37c0,8.53,6.07,14.42,16.17,14.42,12.23,0,20.53-8.59,20.53-19.92C70.75,28.12,64.68,22.24,54.58,22.24ZM50.88,50c-5.83,0-9.06-3.37-9.06-8.3,0-7,4.6-12.94,12.1-12.94,5.83,0,9,3.36,9,8.29C63,44.1,58.37,50,50.88,50Z"/><path class="cls-1" d="M75.31,45a18.68,18.68,0,0,1,.38-3.56l3.69-18.59h7.73L83.42,41.26a15.49,15.49,0,0,0-.29,2.8c0,4,2.28,6,6.4,6,4.65,0,7.35-2.56,8.63-8.77l3.7-18.45h7.54l-3.74,18.92c-2,9.82-7.64,14.84-17,14.84C80.33,56.57,75.31,52.12,75.31,45Z"/><path class="cls-1" d="M134.06,45.76,139.85,56h-8.11l-5.22-9.3H120L118.13,56H110.4L117,22.81h13.51c8.25,0,13,3.79,13,10.29C143.55,39.36,140,43.91,134.06,45.76Zm1.71-11.95c0-3.22-2.28-4.74-6.21-4.74h-6.07l-2.33,11.52h6.55C132.78,40.59,135.77,38.22,135.77,33.81Z"/><path class="cls-1" d="M157,29.56H146.39l1.28-6.26H176.6l-1.28,6.26H164.75l-5.41,26.93h-7.68Z"/><path class="cls-1" d="M13.7,28.9c-.46,0-.91,0-1.35.05V28.9Z"/><path class="cls-1" d="M39.53,3.08l-.71,3.61h7.7l-.59,3H38.2l-.76,3.85H46.5l-.64,3.08H33L36.33,0H48.87l-.64,3.08Z"/><polygon class="cls-1" points="32.39 0 29.07 16.6 25.23 16.6 26.58 9.84 19.06 9.84 17.71 16.6 13.85 16.6 16.54 3.13 9.18 3.13 6.47 16.6 2.63 16.6 5.31 3.13 0 3.13 0.64 0 21.03 0 20.41 3.13 19.73 6.52 27.25 6.52 28.55 0 32.39 0"/></g></g></svg>