<?xml version="1.0" encoding="utf-8"?>
<!-- Generator: Adobe Illustrator 23.0.1, SVG Export Plug-In . SVG Version: 6.00 Build 0)  -->
<svg version="1.1" id="Capa_1" xmlns="http://www.w3.org/2000/svg" xmlns:xlink="http://www.w3.org/1999/xlink" x="0px" y="0px"
	 viewBox="0 0 56 56" style="enable-background:new 0 0 56 56;" xml:space="preserve">
<style type="text/css">
	.st0{fill:#38454F;}
	.st1{fill:#E57E25;}
</style>
<g>
	<circle class="st0" cx="28" cy="28" r="28"/>
	<circle class="st1" cx="28.2" cy="28" r="26.4"/>
	<path class="st0" d="M2.5,30.1c3.4-3.3,9-4.3,13.1-2.4C12,32.8,9.3,38.6,7.9,44.8c0.4,0.5,0.9,2.1,1.4,2.6c0.1-0.1,0.2-1.3,0.3-1.5
		c1.4-6.3,4-12.1,7.6-17.3c2.4,1.9,3.6,4.9,3.3,8.9l0,0.1l0,0.1c0.2,5.7,3.5,11,8.8,14c1.7,1,4.2,1.6,5.9,2c1.6-0.4,3.1-0.9,4.5-1.5
		c-2.9,0.2-6.7-0.5-9.5-2.1c-4.7-2.7-7.6-7.3-7.9-12.4c0.4-5.7-1.9-8.8-4.1-10.5c1.4-1.8,2.9-3.6,4.6-5.2c6.7,6.3,13.1,13,18.9,20.1
		l5.1,5.5l0.9-0.9l-4.6-5.8C37.4,33.7,31,27,24.3,20.6c1.3-1.2,2.7-2.3,4.1-3.3c2.3,2.8,5.9,4.2,10.4,3.9c4.3,0.2,8.3,2.5,11,6.4
		c2.1,3,3.9,7.4,3.8,10.7c0.6-1.5,1-3.1,1.3-4.7c-0.6-2.2-2.2-5.1-3.5-7c-3.1-4.4-7.6-7-12.5-7.2l-0.1,0l-0.1,0
		c-3.8,0.3-6.9-0.9-8.8-3.1c4.8-3.2,10.3-5.6,16.2-6.9c0.2,0,1.1-0.3,1.3-0.4c-0.5-0.5-1-1-1.5-1.4c-5.8,1.4-12.1,3.9-16.9,7.1
		c-1.8-3.7-1.2-8.9,1.6-12.4L31,0.9c-0.9-0.1-1.8-0.1-2.7-0.1l-0.1,1.4c-2.6,4.1-3,9.5-0.9,13.6c-1.6,1.1-3.1,2.3-4.5,3.6
		c-3.1-2.8-6.2-5.6-9.5-8.2L9.7,8.3C9.2,8.7,8.8,9.2,8.3,9.6l3.9,3c3.2,2.6,6.3,5.3,9.3,8c-1.7,1.7-3.3,3.5-4.8,5.4
		c-0.1-0.1-0.2-0.1-0.3-0.2C11.9,23.9,6,24.7,2,28H1.2c0,0.9,0,1.7,0.1,2.6L2.5,30.1z"/>
</g>
</svg>
