<?xml version="1.0" encoding="utf-8"?>
<!-- Generator: Adobe Illustrator 23.0.1, SVG Export Plug-In . SVG Version: 6.00 Build 0)  -->
<svg version="1.1" id="Capa_1" xmlns="http://www.w3.org/2000/svg" xmlns:xlink="http://www.w3.org/1999/xlink" x="0px" y="0px"
	 viewBox="0 0 77.4 23.8" style="enable-background:new 0 0 77.4 23.8;" xml:space="preserve">
<style type="text/css">
	.st0{fill:none;stroke:#AE1620;stroke-width:0.75;stroke-miterlimit:10;}
</style>
<title>Recurso 20</title>
<g>
	<g id="Capa_3">
		<g id="post-twitter">
			<path class="st0" d="M21.1,0.4H2.7c-1.3,0-2.3,1-2.3,2.3v18.4c0,1.3,1,2.3,2.3,2.3h18.4c1.3,0,2.3-1,2.3-2.3V2.7
				C23.4,1.4,22.4,0.4,21.1,0.4z M18.5,8.8c-0.1,5.3-3.4,9-8.5,9.2C8.2,18,6.5,17.6,5,16.6c1.6,0.2,3.2-0.3,4.5-1.3
				c-1.3,0-2.5-0.9-2.9-2.2c0.4,0.1,0.8,0.1,1.3,0c-1.5-0.3-2.5-1.7-2.4-3.1c0.4,0.2,0.8,0.4,1.3,0.3c-1.2-1-1.6-2.7-0.9-4.1
				c1.6,1.9,3.9,3,6.3,3.2c-0.8-3.2,3.6-4.9,5.3-2.8c0.7-0.1,1.4-0.4,2-0.7c-0.2,0.7-0.7,1.3-1.3,1.7c0.6-0.1,1.1-0.2,1.6-0.5
				C19.6,7.8,19,8.3,18.5,8.8z"/>
		</g>
		<path class="st0" d="M69.8,0.4h-8.6c-4,0-7.2,3.2-7.2,7.1c0,0,0,0,0,0v8.6c0,4,3.2,7.2,7.2,7.2c0,0,0,0,0,0h8.6
			c4,0,7.2-3.2,7.2-7.2c0,0,0,0,0,0V7.6C77,3.6,73.8,0.4,69.8,0.4C69.8,0.4,69.8,0.4,69.8,0.4z M74.8,16.2c0,2.8-2.2,5-5,5h-8.6
			c-2.8,0-5-2.2-5-5V7.6c0-2.8,2.2-5,5-5h8.6c2.8,0,5,2.2,5,5V16.2z"/>
		<path class="st0" d="M65.5,6.1c-3.2,0-5.8,2.6-5.8,5.8s2.6,5.8,5.8,5.8s5.8-2.6,5.8-5.8S68.7,6.1,65.5,6.1z M65.5,15.5
			c-2,0-3.6-1.6-3.6-3.6c0-2,1.6-3.6,3.6-3.6c2,0,3.6,1.6,3.6,3.6c0,0,0,0,0,0C69.1,13.9,67.5,15.5,65.5,15.5z"/>
		<circle class="st0" cx="71.7" cy="5.7" r="0.8"/>
		<path id="Facebook_alt_" class="st0" d="M50.6,4.2c-0.1-2.1-1.8-3.7-3.8-3.8H31.4c-2.1,0.1-3.8,1.7-3.8,3.8v15.3
			c0.1,2.1,1.8,3.7,3.8,3.8H39v-8.7h-2.8v-3.8H39V9.4c0-2.6,1.9-4.9,4.3-4.9h3.1v3.8h-3.1c-0.3,0-0.7,0.4-0.7,1v1.5h3.8v3.8h-3.8
			v8.7h4.1c2.1-0.1,3.8-1.7,3.8-3.8V4.2z"/>
	</g>
</g>
</svg>
