<?xml version="1.0" encoding="utf-8"?>
<!-- Generator: Adobe Illustrator 23.0.1, SVG Export Plug-In . SVG Version: 6.00 Build 0)  -->
<svg version="1.1" id="Capa_1" xmlns="http://www.w3.org/2000/svg" xmlns:xlink="http://www.w3.org/1999/xlink" x="0px" y="0px"
	 viewBox="0 0 512 512" style="enable-background:new 0 0 512 512;" xml:space="preserve">
<style type="text/css">
	.st0{fill:#FFFFFF;}
</style>
<g>
	<path class="st0" d="M411,65.6h-65.3C343.4,45.6,325.6,30,304,30h-7.3C292,12.8,275.5,0,256,0s-36,12.8-40.7,30H208
		c-21.6,0-39.4,15.6-41.7,35.5H101c-16.5,0-30,13.4-30,30V482c0,16.5,13.5,30,30,30h310c16.5,0,30-13.5,30-30V95.6
		C441,79,427.5,65.6,411,65.6z M186.6,65.6c2.2-8.9,11-15.5,21.4-15.5h16c5.5,0,10-4.5,10-10c0-11,9.9-20,22-20s22,9,22,20
		c0,5.5,4.5,10,10,10h16c10.4,0,19.2,6.7,21.4,15.6c0.4,1.4,0.6,2.9,0.6,4.5c0,6.2-3.2,11.8-8.1,15.5c-3.8,2.8-8.6,4.5-13.9,4.5h-96
		c-5.3,0-10.1-1.7-13.9-4.5c-4.9-3.7-8.1-9.3-8.1-15.5C186,68.5,186.2,67,186.6,65.6z M421,482c0,5.5-4.5,10-10,10H101
		c-5.5,0-10-4.5-10-10V95.6c0-5.5,4.5-10,10-10h68.3c6.4,14.4,21.3,24.5,38.7,24.5h96c17.4,0,32.4-10.1,38.7-24.5H411
		c5.5,0,10,4.5,10,10V482z"/>
	<path class="st0" d="M341.5,472.7c-22,0-40-17.9-40-40s17.9-40,40-40s40,17.9,40,40S363.5,472.7,341.5,472.7z M341.5,412.7
		c-11,0-20,9-20,20s9,20,20,20s20-9,20-20S352.5,412.7,341.5,412.7z"/>
	<path class="st0" d="M149.8,191c-22,0-40-17.9-40-40s17.9-40,40-40s40,17.9,40,40S171.8,191,149.8,191z M149.8,131
		c-11,0-20,9-20,20s9,20,20,20c11,0,20-9,20-20S160.8,131,149.8,131z"/>
	<path class="st0" d="M233,452.1c-2,2-4.6,3-7.2,3c-2.5,0-5-0.9-6.9-2.8l-14.4-13.9l-13.9,14.4c-2,2-4.6,3-7.2,3
		c-2.5,0-5-0.9-6.9-2.8c-4-3.8-4.1-10.2-0.3-14.1l13.9-14.4l-14.4-13.9c-4-3.8-4.1-10.2-0.2-14.1s10.2-4.1,14.1-0.2l14.4,13.9
		l13.9-14.4c3.8-4,10.2-4.1,14.1-0.2c4,3.8,4.1,10.2,0.3,14.1L218.4,424l14.4,13.9C236.7,441.8,236.8,448.1,233,452.1z"/>
	<path class="st0" d="M384.4,228.7c-2,2-4.6,3.1-7.2,3.1c-2.5,0-5-0.9-7-2.8L355.9,215l-13.9,14.4c-2,2-4.6,3.1-7.2,3.1
		c-2.5,0-5-0.9-6.9-2.8c-4-3.8-4.1-10.2-0.3-14.1l13.9-14.4l-14.4-13.9c-4-3.8-4.1-10.2-0.2-14.1c3.8-4,10.2-4.1,14.1-0.2l14.4,13.9
		l13.9-14.4c3.8-4,10.2-4.1,14.1-0.2c4,3.8,4.1,10.2,0.3,14.1l-13.9,14.4l14.4,13.9C388.2,218.4,388.3,224.7,384.4,228.7z"/>
	<path class="st0" d="M341.5,338.1c-5.5,0-10-4.5-10-10v-0.3c0-15.5-16.7-28.1-37.3-28.1c-43.3,0-78.5-29.3-78.5-65.3v-12.5
		L201,233.7c-4.3,3.5-10.6,2.8-14.1-1.5c-1.5-1.9-2.2-4.1-2.2-6.3c0-2.9,1.3-5.8,3.7-7.8l31-25c0,0,0,0,0,0c1.7-1.4,3.8-2.1,5.9-2.2
		c0.6,0,1.2,0,1.9,0.1c0,0,0,0,0,0c1.5,0.2,2.9,0.8,4.2,1.6c0,0,0,0,0,0c0.2,0.2,0.5,0.3,0.7,0.5l30.9,25c4.3,3.5,5,9.8,1.5,14.1
		c-3.5,4.3-9.8,5-14.1,1.5l-14.7-11.9v12.5c0,25,26.2,45.3,58.5,45.3c31.6,0,57.3,21.6,57.3,48.1v0.3
		C351.5,333.6,347,338.1,341.5,338.1z"/>
	<path class="st0" d="M183.5,328.8c-2,2-4.6,3-7.2,3c-2.5,0-5-0.9-6.9-2.8L155,315.1l-13.9,14.4c-2,2-4.6,3.1-7.2,3.1
		c-2.5,0-5-0.9-6.9-2.8c-4-3.8-4.1-10.2-0.2-14.1l13.9-14.4l-14.4-13.9c-4-3.8-4.1-10.2-0.2-14.1c3.8-4,10.2-4.1,14.1-0.2l14.4,13.9
		l13.9-14.4c3.8-4,10.2-4.1,14.1-0.3c4,3.8,4.1,10.2,0.2,14.1l-13.9,14.4l14.4,13.9C187.2,318.5,187.4,324.8,183.5,328.8z"/>
	<path class="st0" d="M341.5,372.7c-5.5,0-10-4.5-10-10s4.5-10,10-10h0c5.5,0,10,4.5,10,10S347,372.7,341.5,372.7z"/>
</g>
</svg>
