<?xml version="1.0" encoding="utf-8"?>
<!-- Generator: Adobe Illustrator 23.0.1, SVG Export Plug-In . SVG Version: 6.00 Build 0)  -->
<svg version="1.1" id="Capa_1" xmlns="http://www.w3.org/2000/svg" xmlns:xlink="http://www.w3.org/1999/xlink" x="0px" y="0px"
	 viewBox="0 0 481 933.5" style="enable-background:new 0 0 481 933.5;" xml:space="preserve">
<style type="text/css">
	.st0{fill:#DBDBDB;}
	.st1{fill:none;}
	.st2{fill:#FFFFFF;stroke:#232323;stroke-width:6;stroke-miterlimit:10;}
	.st3{fill:none;stroke:#232323;stroke-width:6;stroke-miterlimit:10;}
	.st4{fill:#606060;}
	.st5{fill:#F53E28;}
	.st6{fill:#E88828;stroke:#141414;stroke-width:6;stroke-miterlimit:10;}
	.st7{fill:none;stroke:#000000;stroke-width:5;stroke-linecap:round;stroke-miterlimit:10;}
</style>
<path class="st0" d="M320.7,163.7c0,88.5-71.8,160.3-160.3,160.3S0,252.3,0,163.7S71.8,3.4,160.3,3.4S320.7,75.2,320.7,163.7z"/>
<path class="st1" d="M481,163.7c0,88.5-71.8,160.3-160.3,160.3s-160.3-71.8-160.3-160.3S232.1,3.4,320.7,3.4S481,75.2,481,163.7z"/>
<polyline class="st2" points="83.8,310.3 83.8,81.4 397.2,81.4 397.2,310.3 "/>
<rect x="141.5" y="144" class="st3" width="198" height="169.6"/>
<rect x="226.9" y="344.5" class="st4" width="27.2" height="589"/>
<path class="st5" d="M407.7,344.5H73.4c-9.4,0-17.1-7.6-17.1-17.1s7.6-17.1,17.1-17.1h334.3c9.4,0,17.1,7.6,17.1,17.1
	S417.1,344.5,407.7,344.5z"/>
<path class="st6" d="M312.1,255.8H168.8c-5.7,0-10.2-3.3-10.2-7.4s4.6-7.4,10.2-7.4h143.3c5.7,0,10.2,3.3,10.2,7.4
	S317.8,255.8,312.1,255.8z"/>
<g>
	<path class="st7" d="M312.1,256.5c0,0-21.9,93-10.5,148.1"/>
	<path class="st7" d="M167.2,256.5c0,0,21.9,93,10.5,148.1"/>
	<path class="st7" d="M246.7,256.5l56.8,47.1c0,0-83.5,112.6-122.5,83.6"/>
	<line class="st7" x1="177.6" y1="256.5" x2="299.1" y2="344.5"/>
	<path class="st7" d="M214.1,348.1l32.6,28.3c0,0,28.5,24.1,52.4,0"/>
	<line class="st7" x1="177.6" y1="316.5" x2="214.1" y2="348.1"/>
	<line class="st7" x1="181" y1="372.4" x2="299.1" y2="256.5"/>
	<line class="st7" x1="230.6" y1="256.5" x2="175.4" y2="300.5"/>
</g>
<line class="st7" x1="230.6" y1="362.5" x2="230.6" y2="404.5"/>
<line class="st7" x1="267.5" y1="389.2" x2="267.5" y2="404.5"/>
<path class="st7" d="M172,280c0,0,104.2,97.1,126.3,87.6"/>
</svg>
