<?xml version="1.0" encoding="utf-8"?>
<!-- Generator: Adobe Illustrator 23.0.1, SVG Export Plug-In . SVG Version: 6.00 Build 0)  -->
<svg version="1.1" id="Capa_1" xmlns="http://www.w3.org/2000/svg" xmlns:xlink="http://www.w3.org/1999/xlink" x="0px" y="0px"
	 viewBox="0 0 481 933.5" style="enable-background:new 0 0 481 933.5;" xml:space="preserve">
<style type="text/css">
	.st0{fill:#606060;}
	.st1{fill:#EDEBDC;}
	.st2{fill:none;}
	.st3{fill:#FFFFFF;}
	.st4{fill:#4C241D;}
	.st5{fill:#F53E28;}
	.st6{fill:#FC8C29;}
</style>
<rect x="226.9" y="344.5" class="st0" width="27.2" height="589"/>
<g>
	<path class="st1" d="M320.7,163.7c0,88.5-71.8,160.3-160.3,160.3S0,252.3,0,163.7S71.8,3.4,160.3,3.4S320.7,75.2,320.7,163.7z"/>
	<path class="st2" d="M481,163.7c0,88.5-71.8,160.3-160.3,160.3s-160.3-71.8-160.3-160.3S232.1,3.4,320.7,3.4S481,75.2,481,163.7z"
		/>
	<path class="st3" d="M388.9,310.4H75V180.8c0-86.7,70.3-156.9,157-156.9s156.9,70.3,156.9,156.9V310.4z"/>
	<path class="st4" d="M388.9,317.2H75c-3.8,0-6.8-3.1-6.8-6.8V180.8c0-90.3,73.5-163.7,163.7-163.7c90.3,0,163.7,73.5,163.7,163.7
		v129.6C395.7,314.2,392.7,317.2,388.9,317.2z M81.9,303.6h300.2V180.8C382.1,98,314.7,30.7,232,30.7S81.9,98,81.9,180.8V303.6z"/>
	<path class="st4" d="M348,317.2H122.8c-3.8,0-6.8-3.1-6.8-6.8V133c0-3.8,3-6.8,6.8-6.8H348c3.8,0,6.8,3.1,6.8,6.8v177.4
		C354.8,314.2,351.7,317.2,348,317.2z M129.6,303.6h211.5V139.9H129.6V303.6z"/>
	<path class="st5" d="M399.1,344.5H64.8c-9.4,0-17.1-7.6-17.1-17.1s7.6-17.1,17.1-17.1h334.3c9.4,0,17.1,7.6,17.1,17.1
		S408.5,344.5,399.1,344.5z"/>
	<path class="st4" d="M399.1,351.4H64.8c-13.2,0-23.9-10.7-23.9-23.9c0-13.2,10.7-23.9,23.9-23.9h334.3c13.2,0,23.9,10.7,23.9,23.9
		C423,340.6,412.3,351.4,399.1,351.4z M64.8,317.2c-5.6,0-10.2,4.6-10.2,10.2s4.6,10.2,10.2,10.2h334.3c5.6,0,10.2-4.6,10.2-10.2
		s-4.6-10.2-10.2-10.2H64.8z"/>
	<path class="st6" d="M303.6,255.8H160.3c-5.7,0-10.2-4.6-10.2-10.2s4.6-10.2,10.2-10.2h143.3c5.7,0,10.2,4.6,10.2,10.2
		S309.3,255.8,303.6,255.8z"/>
	<g>
		<path class="st4" d="M303.6,262.7H160.3c-9.4,0-17.1-7.7-17.1-17.1s7.6-17.1,17.1-17.1h143.3c9.4,0,17.1,7.7,17.1,17.1
			S313,262.7,303.6,262.7z M160.3,242.2c-1.9,0-3.4,1.5-3.4,3.4s1.5,3.4,3.4,3.4h143.3c1.9,0,3.4-1.5,3.4-3.4s-1.5-3.4-3.4-3.4
			H160.3z"/>
		<path class="st4" d="M184.2,417.5c-3.8,0-6.8-3.1-6.8-6.8c0-69.2-20.8-139.5-25-152.9c-1.1-3.6,0.9-7.4,4.5-8.5s7.4,0.9,8.5,4.5
			c6,19.3,25.6,87.5,25.6,157C191,414.5,188,417.5,184.2,417.5z"/>
		<path class="st4" d="M279.7,419.6c-3.8,0-6.8-3.1-6.8-6.8c0-71.3,22.3-144.9,26.8-159c1.1-3.6,5-5.6,8.6-4.4
			c3.6,1.1,5.6,5,4.4,8.6c-4.4,13.7-26.1,85.6-26.1,154.9C286.5,416.5,283.5,419.6,279.7,419.6z"/>
		<path class="st4" d="M278.7,396h-13.9c-11.6,0-22.5-4.5-30.7-12.7l-63.7-63.7c-2.7-2.7-2.7-7,0-9.6c2.7-2.7,7-2.7,9.6,0l63.7,63.7
			c5.6,5.6,13.1,8.7,21,8.7h13.9c3.8,0,6.8,3.1,6.8,6.8S282.5,396,278.7,396z"/>
		<path class="st4" d="M282.5,370.4c-1.7,0-3.5-0.7-4.8-2L169.8,261.3c-2.7-2.7-2.7-7,0-9.6c2.7-2.7,7-2.7,9.6,0l107.9,107.1
			c2.7,2.7,2.7,7,0,9.6C286,369.7,284.3,370.4,282.5,370.4z"/>
		<path class="st4" d="M290.1,320.8c-1.7,0-3.5-0.7-4.8-2l-58.2-58.2c-2.7-2.7-2.7-7,0-9.6c2.7-2.7,7-2.7,9.6,0l58.2,58.2
			c2.7,2.7,2.7,7,0,9.7C293.6,320.2,291.9,320.8,290.1,320.8z"/>
		<path class="st4" d="M184.2,389.2c-1.7,0-3.5-0.7-4.8-2c-2.7-2.7-2.7-7,0-9.6l114.3-114.3c2.7-2.7,7-2.7,9.6,0
			c2.7,2.7,2.7,7,0,9.6L189,387.2C187.7,388.5,185.9,389.2,184.2,389.2z"/>
		<path class="st4" d="M177.4,317.2c-1.7,0-3.5-0.7-4.8-2c-2.7-2.7-2.7-7,0-9.6l54.6-54.6c2.7-2.7,7-2.7,9.6,0c2.7,2.7,2.7,7,0,9.6
			l-54.6,54.6C180.9,316.6,179.1,317.2,177.4,317.2z"/>
		<path class="st4" d="M258.5,417.5c-3.8,0-6.8-3.1-6.8-6.8v-20.5c0-3.8,3-6.8,6.8-6.8c3.8,0,6.8,3.1,6.8,6.8v20.5
			C265.3,414.5,262.3,417.5,258.5,417.5z"/>
		<path class="st4" d="M231.3,417.5c-3.8,0-6.8-3.1-6.8-6.8v-35.1c0-3.8,3-6.8,6.8-6.8s6.8,3.1,6.8,6.8v35.1
			C238.1,414.5,235.1,417.5,231.3,417.5z"/>
	</g>
</g>
</svg>
